<svg width="12" height="14" viewBox="0 0 12 14" fill="currentColor" xmlns="http://www.w3.org/2000/svg">
<path d="M5.90533 13.3123C5.722 13.3123 5.55067 13.263 5.39067 13.1776L3.76467 12.2123C3.52133 12.077 3.64333 12.0276 3.71667 12.003C4.04733 11.893 4.10867 11.869 4.45067 11.6743C4.488 11.6496 4.53667 11.661 4.574 11.6856L5.82067 12.4323C5.87 12.4563 5.93133 12.4563 5.968 12.4323L10.8473 9.60765C10.8967 9.58364 10.9207 9.53431 10.9207 9.47298V3.83431C10.9207 3.77365 10.8967 3.72431 10.8473 3.70031L5.968 0.887645C5.91933 0.862979 5.858 0.862979 5.82067 0.887645L0.94 3.69965C0.891333 3.72365 0.866667 3.78565 0.866667 3.83365V9.47165C0.866667 9.52031 0.891333 9.58231 0.94 9.60631L2.27333 10.3776C2.99467 10.743 3.448 10.3143 3.448 9.88765V4.32365C3.448 4.25031 3.50867 4.17631 3.59467 4.17631H4.21867C4.29067 4.17631 4.36533 4.23765 4.36533 4.32365V9.88831C4.36533 10.8543 3.84 11.4176 2.92267 11.4176C2.64133 11.4176 2.42133 11.4176 1.79733 11.111L0.514 10.3783C0.357639 10.2874 0.227874 10.1571 0.137675 10.0003C0.0474758 9.84354 2.56882e-06 9.66584 0 9.48498V3.84631C0 3.47965 0.195333 3.13698 0.514 2.95365L5.39133 0.128979C5.54967 0.0443021 5.72645 0 5.906 0C6.08555 0 6.26233 0.0443021 6.42067 0.128979L11.2987 2.95365C11.618 3.13631 11.8127 3.47965 11.8127 3.84631V9.48498C11.8127 9.85098 11.6173 10.1936 11.2987 10.3783L6.42067 13.2023C6.26 13.2756 6.07667 13.3123 5.90533 13.3123ZM7.40933 9.43498C5.26933 9.43498 4.82933 8.45631 4.82933 7.62565C4.82933 7.55231 4.89067 7.47831 4.976 7.47831H5.612C5.68533 7.47831 5.746 7.52698 5.746 7.60098C5.844 8.24831 6.12467 8.56698 7.422 8.56698C8.44867 8.56698 8.89 8.33365 8.89 7.78365C8.89 7.46565 8.76667 7.23365 7.16533 7.07498C5.83267 6.94165 5.00133 6.64631 5.00133 5.58298C5.00133 4.59298 5.83267 4.00565 7.22733 4.00565C8.792 4.00565 9.56267 4.54498 9.66 5.71765C9.65883 5.75722 9.64583 5.79554 9.62267 5.82765C9.598 5.85165 9.562 5.87631 9.52533 5.87631H8.89C8.85859 5.87564 8.82831 5.86453 8.80392 5.84474C8.77953 5.82494 8.76244 5.79758 8.75533 5.76698C8.608 5.09231 8.22933 4.87365 7.22733 4.87365C6.10133 4.87365 5.96667 5.26498 5.96667 5.55831C5.96667 5.91231 6.12467 6.02231 7.64267 6.21831C9.14667 6.41365 9.856 6.69498 9.856 7.74765C9.84267 8.82431 8.96333 9.43498 7.40933 9.43498Z" fill="currentColor"/>
</svg>
