<svg width="12" height="7" viewBox="0 0 12 7" fill="currentColor" xmlns="http://www.w3.org/2000/svg">
<path d="M12 6.7757C11.8254 6.84176 11.6326 6.84161 11.458 6.77529C11.2835 6.70897 11.1392 6.58107 11.0525 6.4157L9.32751 4.0302L9.07751 3.6967L7.07601 6.4187C6.9945 6.57713 6.85808 6.70044 6.69226 6.7656C6.52643 6.83075 6.34256 6.83327 6.17501 6.7727L8.75401 3.3127L6.35501 0.187201C6.5275 0.125038 6.71615 0.124214 6.88919 0.184867C7.06222 0.24552 7.20907 0.363946 7.30501 0.520201L9.09301 2.9352L10.891 0.530201C10.9731 0.374595 11.1096 0.254595 11.2744 0.193015C11.4393 0.131436 11.621 0.132569 11.785 0.196201L10.854 1.4317L9.59301 3.0732C9.55799 3.10444 9.52997 3.14273 9.51078 3.18555C9.49159 3.22838 9.48167 3.27477 9.48167 3.3217C9.48167 3.36863 9.49159 3.41503 9.51078 3.45785C9.52997 3.50068 9.55799 3.53896 9.59301 3.5702L11.995 6.7762L12 6.7757ZM0.001006 3.2697L0.211006 2.2322C0.788006 0.180701 3.14001 -0.672799 4.75801 0.597201C5.70551 1.3417 5.94201 2.3957 5.89551 3.5837H0.558006C0.471506 5.7052 2.00251 6.9862 3.96001 6.3317C4.27734 6.21748 4.56138 6.02632 4.78668 5.77536C5.01199 5.5244 5.17153 5.22147 5.25101 4.8937C5.35451 4.5607 5.52501 4.5037 5.83801 4.5997C5.78585 5.00589 5.64226 5.39497 5.41804 5.73766C5.19382 6.08035 4.89481 6.36774 4.54351 6.5782C3.96321 6.89562 3.29742 7.02142 2.64132 6.93764C1.98522 6.85385 1.37241 6.56476 0.890506 6.1117C0.414021 5.5754 0.126044 4.89795 0.070506 4.1827C0.070506 4.0652 0.030506 3.9552 0.003506 3.8497C0.00107201 3.65654 -9.46786e-05 3.46337 5.99814e-06 3.2702L0.001006 3.2697ZM0.564506 3.1267H5.39151C5.36151 1.5887 4.39101 0.497701 3.09651 0.487701C1.65551 0.467701 0.624506 1.5347 0.561006 3.1197L0.564506 3.1267Z" fill="#111827"/>
</svg>
