<svg width="12" height="12" viewBox="0 0 12 12" fill="currentColor" xmlns="http://www.w3.org/2000/svg">
<g clip-path="url(#clip0_404_2651)">
<mask id="mask0_404_2651" style="mask-type:luminance" maskUnits="userSpaceOnUse" x="0" y="0" width="12" height="12">
<path d="M0 0H12V12H0V0Z" fill="white"/>
</mask>
<g mask="url(#mask0_404_2651)">
<path d="M5.607 0.0030625C5.581 0.0055625 5.499 0.0140625 5.425 0.0195625C3.721 0.173562 2.125 1.09306 1.113 2.50656C0.55415 3.28242 0.19086 4.18173 0.054 5.12806C0.006 5.45806 0 5.55506 0 6.00206C0 6.44906 0.006 6.54656 0.054 6.87606C0.38 9.12956 1.984 11.0226 4.1585 11.7241C4.548 11.8496 4.9585 11.9351 5.425 11.9871C5.607 12.0071 6.393 12.0071 6.575 11.9871C7.3805 11.8976 8.0635 11.6981 8.7365 11.3546C8.84 11.3021 8.86 11.2876 8.846 11.2761C8.5168 10.8419 8.19096 10.4052 7.8685 9.96606L6.909 8.66956L5.707 6.89006C5.30706 6.29487 4.90339 5.70219 4.496 5.11206C4.4915 5.11056 4.487 5.90106 4.4845 6.86706C4.481 8.55706 4.4795 8.62506 4.4585 8.66506C4.43802 8.71174 4.40147 8.74953 4.3555 8.77156C4.318 8.79056 4.2855 8.79406 4.108 8.79406H3.905L3.851 8.76006C3.81758 8.73897 3.79047 8.70926 3.7725 8.67406L3.7475 8.62156L3.75 6.26956L3.7535 3.91656L3.79 3.87056C3.81457 3.8418 3.84403 3.8176 3.877 3.79906C3.925 3.77556 3.9435 3.77356 4.147 3.77356C4.386 3.77356 4.426 3.78256 4.488 3.85056C4.5055 3.86956 5.1565 4.85056 5.9355 6.03156L8.3025 9.61756L9.2525 11.0566L9.301 11.0251C9.7582 10.7211 10.1727 10.3574 10.5335 9.94356C11.2896 9.07821 11.78 8.01314 11.946 6.87606C11.994 6.54606 12 6.44906 12 6.00206C12 5.55506 11.994 5.45806 11.946 5.12806C11.62 2.87506 10.016 0.981562 7.8415 0.280062C7.43509 0.150847 7.01661 0.0632311 6.5925 0.0185625C6.4795 0.0065625 5.7045 -0.0064375 5.6075 0.0035625L5.607 0.0030625ZM8.0635 3.63306C8.09138 3.6471 8.11621 3.66653 8.13655 3.69021C8.15689 3.7139 8.17233 3.74138 8.182 3.77106C8.191 3.80106 8.1935 4.45356 8.191 5.92356L8.1875 8.03256L7.816 7.46256L7.443 6.89256V5.35956C7.443 4.36806 7.4475 3.81106 7.4545 3.78406C7.46282 3.75283 7.47739 3.72361 7.49733 3.69817C7.51727 3.67274 7.54216 3.65161 7.5705 3.63606C7.619 3.61106 7.6365 3.60906 7.8205 3.60906C7.994 3.60906 8.0245 3.61206 8.0635 3.63306Z" fill="#111827"/>
</g>
</g>
<defs>
<clipPath id="clip0_404_2651">
<rect width="12" height="12" fill="white"/>
</clipPath>
</defs>
</svg>
