<svg width="12" height="12" viewBox="0 0 12 12" fill="currentColor" xmlns="http://www.w3.org/2000/svg">
<path d="M10.8267 0H1.17333C0.862146 0 0.563704 0.123619 0.343661 0.343661C0.123619 0.563704 0 0.862146 0 1.17333V10.8267C0 11.1379 0.123619 11.4363 0.343661 11.6563C0.563704 11.8764 0.862146 12 1.17333 12H10.8267C10.9808 12 11.1333 11.9697 11.2757 11.9107C11.418 11.8517 11.5474 11.7653 11.6563 11.6563C11.7653 11.5474 11.8517 11.418 11.9107 11.2757C11.9697 11.1333 12 10.9808 12 10.8267V1.17333C12 1.01925 11.9697 0.866674 11.9107 0.724318C11.8517 0.581963 11.7653 0.452615 11.6563 0.343661C11.5474 0.234707 11.418 0.14828 11.2757 0.0893146C11.1333 0.0303491 10.9808 0 10.8267 0ZM6.96 6.66667H5.46V10.96H4.26667V6.66667H2.76667V5.69333H6.96V6.66667ZM10.8267 10.1867C10.7302 10.3919 10.5746 10.5636 10.38 10.68C10.1752 10.806 9.94938 10.8941 9.71333 10.94C9.45016 10.9943 9.18205 11.0212 8.91333 11.02C8.63837 11.0198 8.36397 10.9952 8.09333 10.9467C7.8633 10.8996 7.63956 10.8257 7.42667 10.7267V9.58667L7.38667 9.54667H7.42667V9.59333C7.62719 9.74978 7.85254 9.87147 8.09333 9.95333C8.33379 10.0449 8.58939 10.0901 8.84667 10.0867C8.98111 10.089 9.11536 10.0756 9.24667 10.0467C9.3453 10.0236 9.43975 9.98535 9.52667 9.93333C9.59471 9.89185 9.65185 9.83471 9.69333 9.76667C9.73438 9.68918 9.75243 9.60157 9.74534 9.51416C9.73825 9.42676 9.70633 9.3432 9.65333 9.27333C9.59066 9.18547 9.51139 9.11073 9.42 9.05333C9.30903 8.9753 9.19069 8.90832 9.06667 8.85333L8.62 8.66667C8.26642 8.52104 7.95313 8.29237 7.70667 8C7.5004 7.75136 7.39143 7.43628 7.4 7.11333C7.39223 6.86799 7.44731 6.62474 7.56 6.40667C7.66754 6.21659 7.81826 6.05445 8 5.93333C8.20248 5.79862 8.42872 5.7036 8.66667 5.65333C8.9268 5.59346 9.19307 5.56437 9.46 5.56667C9.70307 5.56327 9.94603 5.57888 10.1867 5.61333C10.3869 5.64463 10.5834 5.696 10.7733 5.76667V6.86667C10.6856 6.80412 10.5918 6.75051 10.4933 6.70667C10.3873 6.66104 10.2782 6.62316 10.1667 6.59333C10.0598 6.56206 9.95055 6.53976 9.84 6.52667C9.738 6.51705 9.63533 6.51705 9.53333 6.52667C9.40772 6.52459 9.28232 6.53802 9.16 6.56667C9.05965 6.58771 8.96303 6.62366 8.87333 6.67333C8.80333 6.71458 8.74396 6.77167 8.7 6.84C8.66009 6.9064 8.63933 6.98254 8.64 7.06C8.63838 7.1427 8.6616 7.22398 8.70667 7.29333C8.76143 7.36905 8.82913 7.4345 8.90667 7.48667C9.00066 7.5615 9.10369 7.62421 9.21333 7.67333L9.63333 7.86C9.82645 7.93983 10.0136 8.03341 10.1933 8.14C10.3514 8.2265 10.4953 8.33666 10.62 8.46667C10.7422 8.5851 10.8377 8.7283 10.9 8.88667C10.9639 9.06866 10.9955 9.26045 10.9933 9.45333C10.9886 9.70233 10.9318 9.94757 10.8267 10.1733V10.1867Z" fill="#111827"/>
</svg>
